<svg id="svg" version="1.1" xmlns="http://www.w3.org/2000/svg" xmlns:xlink="http://www.w3.org/1999/xlink" width="400" height="361.02088167053364" viewBox="0, 0, 400,361.02088167053364"><g id="svgg"><path id="path0" d="M118.880 54.381 L 118.880 108.762 61.156 108.801 C 29.408 108.822,2.985 108.809,2.438 108.773 C 1.821 108.733,1.361 108.924,1.225 109.277 C 1.105 109.590,0.780 109.846,0.503 109.846 C 0.098 109.846,0.000 110.796,0.000 114.724 C 0.000 118.820,0.087 119.603,0.542 119.603 C 0.840 119.603,1.084 119.852,1.084 120.156 C 1.084 120.460,0.840 120.803,0.542 120.917 C -1.080 121.540,0.351 126.107,2.168 126.107 C 2.979 126.107,3.197 127.368,2.439 127.674 C 2.078 127.820,2.078 127.862,2.439 127.885 C 2.687 127.900,2.891 128.238,2.891 128.636 C 2.891 129.567,4.128 130.804,5.059 130.804 C 5.456 130.804,5.781 130.966,5.781 131.164 C 5.781 131.402,25.021 131.556,62.240 131.616 L 118.699 131.707 118.791 182.023 L 118.882 232.340 61.056 232.340 C 9.988 232.340,3.205 232.403,3.021 232.882 C 2.886 233.235,2.324 233.424,1.407 233.424 L 0.000 233.424 0.000 243.360 L 0.000 253.297 59.440 253.297 L 118.880 253.297 118.880 306.606 C 118.880 353.658,118.943 359.939,119.422 360.122 C 119.720 360.237,119.964 360.557,119.964 360.834 C 119.964 361.844,139.526 361.545,140.202 360.524 C 140.671 359.816,140.764 352.848,140.921 306.594 L 141.102 253.478 199.097 253.478 L 257.091 253.478 257.183 307.407 L 257.274 361.337 269.201 361.337 L 281.127 361.337 281.120 309.937 C 281.116 281.667,281.115 257.358,281.117 255.917 L 281.120 253.297 340.560 253.297 L 400.000 253.297 400.000 242.818 L 400.000 232.340 340.560 232.340 L 281.120 232.340 281.120 182.475 L 281.120 132.611 340.560 132.611 L 400.000 132.611 400.000 120.687 L 400.000 108.762 340.560 108.762 L 281.120 108.762 281.120 54.381 L 281.120 0.000 269.196 0.000 L 257.272 0.000 257.272 54.334 L 257.272 108.668 256.098 108.837 C 255.452 108.929,254.354 108.979,253.659 108.947 C 252.963 108.915,227.313 108.860,196.658 108.825 L 140.921 108.762 140.921 55.646 C 140.921 -3.294,141.095 1.084,138.753 1.084 C 138.352 1.084,138.031 0.843,138.031 0.542 C 138.031 -0.266,127.731 -0.266,127.421 0.542 C 127.151 1.246,126.107 1.246,126.107 0.542 C 126.107 0.096,125.464 0.000,122.493 0.000 L 118.880 0.000 118.880 54.381 M203.302 132.069 C 203.484 132.544,206.830 132.611,230.391 132.611 L 257.272 132.611 257.272 182.475 L 257.272 232.340 199.097 232.340 L 140.921 232.340 140.921 182.174 C 140.921 154.583,141.030 131.900,141.162 131.768 C 141.729 131.201,203.083 131.498,203.302 132.069 " stroke="none" fill="#fcfcfc" fill-rule="evenodd"></path><path id="path1" d="M0.000 54.799 C 0.000 107.864,0.021 109.578,0.661 108.999 C 1.270 108.448,5.901 108.401,59.920 108.401 L 118.519 108.401 118.519 54.201 L 118.519 0.000 59.259 0.000 L 0.000 0.000 0.000 54.799 M138.573 0.361 C 138.696 0.560,139.030 0.723,139.317 0.723 C 141.423 0.723,141.283 -3.169,141.283 55.285 L 141.283 108.401 199.097 108.401 L 256.911 108.401 256.911 54.201 L 256.911 0.000 197.630 0.000 C 158.202 0.000,138.424 0.121,138.573 0.361 M281.481 54.201 L 281.481 108.401 340.741 108.401 L 400.000 108.401 400.000 54.201 L 400.000 0.000 340.741 0.000 L 281.481 0.000 281.481 54.201 M0.000 179.404 L 0.000 233.062 1.040 233.062 C 1.612 233.062,2.282 232.818,2.529 232.520 C 2.926 232.043,9.839 231.978,60.749 231.978 L 118.519 231.978 118.519 182.114 L 118.519 132.249 62.194 132.249 C 12.569 132.249,5.816 132.185,5.420 131.707 C 5.173 131.409,4.746 131.165,4.472 131.165 C 3.829 131.165,2.529 129.866,2.529 129.222 C 2.529 128.948,2.281 128.519,1.978 128.267 C 1.486 127.859,1.492 127.738,2.034 127.139 C 2.611 126.501,2.594 126.468,1.682 126.468 C 1.154 126.468,0.723 126.305,0.723 126.107 C 0.723 125.908,0.560 125.745,0.361 125.745 C 0.122 125.745,0.000 143.872,0.000 179.404 M141.283 182.114 L 141.283 231.978 199.098 231.978 L 256.913 231.978 256.822 182.565 L 256.730 133.153 229.901 133.060 C 212.433 133.000,203.071 132.842,203.071 132.608 C 203.071 132.373,192.400 132.249,172.177 132.249 L 141.283 132.249 141.283 182.114 M281.481 182.475 L 281.481 231.978 340.741 231.978 L 400.000 231.978 400.000 182.475 L 400.000 132.972 340.741 132.972 L 281.481 132.972 281.481 182.475 M0.000 307.678 L 0.000 361.337 59.857 361.337 C 117.823 361.337,119.696 361.316,119.117 360.676 C 118.566 360.068,118.519 355.826,118.519 307.018 L 118.519 254.020 59.259 254.020 L 0.000 254.020 0.000 307.678 M141.283 307.115 C 141.283 342.122,141.160 360.286,140.921 360.434 C 140.723 360.556,140.560 360.810,140.560 360.997 C 140.560 361.208,162.625 361.337,198.735 361.337 L 256.911 361.337 256.911 307.678 L 256.911 254.020 199.097 254.020 L 141.283 254.020 141.283 307.115 M281.481 307.678 L 281.481 361.337 340.741 361.337 L 400.000 361.337 400.000 307.678 L 400.000 254.020 340.741 254.020 L 281.481 254.020 281.481 307.678 " stroke="none" fill="#040404" fill-rule="evenodd"></path><path id="path2" d="" stroke="none" fill="#c010080" fill-rule="evenodd"></path><path id="path3" d="M118.608 54.110 L 118.519 108.401 59.882 108.401 C 1.692 108.401,1.240 108.407,0.626 109.124 C 0.286 109.521,0.173 109.846,0.376 109.846 C 0.579 109.846,0.839 109.603,0.953 109.304 C 1.137 108.826,8.016 108.762,59.851 108.762 C 106.471 108.762,118.577 108.670,118.713 108.311 C 118.808 108.062,118.843 83.550,118.791 53.839 L 118.697 -0.181 118.608 54.110 M138.176 0.443 C 138.227 0.696,138.604 0.953,139.015 1.014 C 141.043 1.314,140.911 -2.304,141.011 55.492 L 141.102 108.582 199.097 108.582 L 257.091 108.582 257.093 54.381 L 257.095 0.181 257.001 54.291 L 256.908 108.401 199.095 108.401 L 141.283 108.401 141.283 55.285 C 141.283 -3.589,141.452 0.723,139.145 0.723 C 138.764 0.723,138.370 0.556,138.269 0.352 C 138.168 0.149,138.126 0.189,138.176 0.443 M281.299 54.291 L 281.301 108.582 340.650 108.583 L 400.000 108.585 340.742 108.492 L 281.484 108.399 281.391 54.199 L 281.297 -0.000 281.299 54.291 M0.367 119.845 C 0.633 119.976,0.620 120.194,0.325 120.549 C -0.022 120.967,0.012 121.020,0.506 120.831 C 1.172 120.575,1.117 119.879,0.420 119.743 C 0.167 119.693,0.145 119.736,0.367 119.845 M0.490 125.926 C 0.788 126.224,1.369 126.468,1.781 126.468 C 2.693 126.468,2.765 127.022,1.897 127.358 C 1.295 127.592,1.295 127.626,1.897 128.069 C 2.245 128.325,2.529 128.802,2.529 129.127 C 2.529 129.932,3.818 131.165,4.659 131.165 C 5.035 131.165,5.436 131.409,5.551 131.707 C 5.734 132.186,12.356 132.249,62.139 132.249 L 118.519 132.249 118.519 182.114 L 118.519 231.978 60.693 231.978 C 9.626 231.978,2.844 232.042,2.660 232.520 C 2.534 232.848,1.931 233.085,1.136 233.120 L -0.181 233.178 1.068 233.329 C 1.923 233.433,2.448 233.301,2.733 232.911 C 3.109 232.398,8.821 232.333,60.924 232.250 L 118.699 232.159 118.791 182.023 L 118.882 131.888 62.371 131.888 C 12.471 131.888,5.834 131.825,5.651 131.346 C 5.536 131.048,5.138 130.804,4.765 130.804 C 3.945 130.804,2.891 129.715,2.891 128.867 C 2.891 128.529,2.642 128.157,2.338 128.040 C 1.854 127.854,1.861 127.772,2.393 127.383 C 3.114 126.856,2.769 126.107,1.807 126.107 C 1.433 126.107,1.026 125.944,0.903 125.745 C 0.781 125.547,0.515 125.384,0.314 125.384 C 0.113 125.384,0.192 125.628,0.490 125.926 M141.088 132.340 C 140.994 132.588,140.958 155.149,141.009 182.475 L 141.102 232.159 199.097 232.159 L 257.091 232.159 257.091 182.475 L 257.091 132.791 230.368 132.699 C 213.277 132.639,203.515 132.477,203.286 132.247 C 202.709 131.670,141.308 131.761,141.088 132.340 M203.071 132.608 C 203.071 132.842,212.433 133.000,229.901 133.060 L 256.730 133.153 256.822 182.565 L 256.913 231.978 199.098 231.978 L 141.283 231.978 141.283 182.114 L 141.283 132.249 172.177 132.249 C 192.400 132.249,203.071 132.373,203.071 132.608 M281.287 133.062 C 281.192 133.311,281.157 155.709,281.208 182.836 L 281.301 232.159 340.650 232.161 L 400.000 232.162 340.741 232.069 L 281.481 231.976 281.481 182.475 L 281.481 132.974 340.831 132.882 L 400.181 132.789 340.820 132.700 C 293.598 132.629,281.424 132.703,281.287 133.062 M59.259 253.568 L 118.519 253.661 118.519 306.877 C 118.519 359.645,118.525 360.098,119.241 360.711 C 119.639 361.051,119.964 361.177,119.964 360.990 C 119.964 360.803,119.721 360.514,119.423 360.348 C 118.947 360.081,118.871 353.632,118.791 306.761 L 118.699 253.478 59.350 253.476 L -0.000 253.475 59.259 253.568 M141.373 253.537 C 141.015 253.681,140.921 264.710,140.921 306.986 C 140.921 338.002,140.787 360.253,140.599 360.253 C 140.421 360.253,140.170 360.528,140.041 360.865 C 139.835 361.402,139.897 361.395,140.543 360.810 C 141.278 360.145,141.281 359.972,141.372 306.991 L 141.463 253.839 199.097 253.839 L 256.730 253.839 256.912 307.678 L 257.095 361.518 257.183 307.627 C 257.264 258.767,257.219 253.715,256.700 253.517 C 256.017 253.254,142.024 253.274,141.373 253.537 M281.287 253.749 C 281.192 253.997,281.157 278.347,281.209 307.859 L 281.303 361.518 281.392 307.589 L 281.481 253.661 340.831 253.568 L 400.181 253.476 340.820 253.386 C 293.598 253.315,281.424 253.390,281.287 253.749 " stroke="none" fill="#408480" fill-rule="evenodd"></path><path id="path4" d="M29.539 253.930 C 45.885 253.982,72.633 253.982,88.979 253.930 C 105.325 253.878,91.951 253.835,59.259 253.835 C 26.567 253.835,13.193 253.878,29.539 253.930 M170.280 253.930 C 186.129 253.982,212.064 253.982,227.913 253.930 C 243.762 253.877,230.795 253.835,199.097 253.835 C 167.398 253.835,154.431 253.877,170.280 253.930 M311.021 253.930 C 327.367 253.982,354.115 253.982,370.461 253.930 C 386.807 253.878,373.433 253.835,340.741 253.835 C 308.049 253.835,294.675 253.878,311.021 253.930 " stroke="none" fill="#400484" fill-rule="evenodd"></path></g></svg>